<svg width="437" height="406" viewBox="0 0 437 406" fill="none" xmlns="http://www.w3.org/2000/svg">
<path d="M8 5V100.5M8 346.5L5 222.5L8 100.5M8 100.5C41.3333 93.3333 113.4 86.7 135 117.5C149 141 136.8 161 180 177C195 183 207.2 212.2 184 259C179.833 265.833 176.2 281.7 195 290.5" stroke="#E91C0D" stroke-width="10" stroke-linecap="round" stroke-linejoin="round"/>
<path d="M171.453 278.986C177.064 269.655 185.993 269.375 189.783 270.413C200.477 273.429 192.33 284.648 186.601 289.88C180.278 294.454 177.008 290.74 175.708 287.069C175.257 285.795 174.149 284.868 172.948 284.249C170.759 283.121 170.799 280.826 171.24 279.442C171.291 279.283 171.367 279.13 171.453 278.986Z" fill="#E91C0D"/>
<path d="M357.643 45.8943C324.336 49.3225 285.48 41.0887 269.292 36.2876C268.82 36.1475 268.322 36.399 268.122 36.8498C250.068 77.6224 286.973 94.3663 307.825 97.6464C360.739 101.577 365.151 63.3273 358.642 46.4883C358.485 46.0817 358.077 45.8497 357.643 45.8943Z" stroke="#E91C0D" stroke-width="3.22114" stroke-linecap="round" stroke-linejoin="round"/>
<path d="M348.63 67.9761C343.468 68.4824 344.828 60.8208 346.542 55.6945C346.791 54.9497 347.765 54.8266 348.211 55.473C354.811 65.0374 351.339 67.8076 348.63 67.9761Z" stroke="#E91C0D" stroke-width="2" stroke-linecap="round"/>
<path d="M258.794 44.3071C267.87 8.8197 300.979 3.78711 316.37 5.8029C333.118 7.9479 366.762 21.9955 367.604 57.4229" stroke="#E91C0D" stroke-width="3.22114" stroke-linecap="round" stroke-linejoin="round"/>
<ellipse cx="283.107" cy="66.9803" rx="8.32353" ry="9.20901" transform="rotate(0.471631 283.107 66.9803)" fill="#ECCCC8"/>
<ellipse cx="334.947" cy="72.8978" rx="7.79224" ry="8.67772" transform="rotate(0.471631 334.947 72.8978)" fill="#ECCCC8"/>
<path d="M283.747 22.1953C281.178 29.2393 280.7 32.7732 280.778 38.6414M296.298 25.1323C293.204 31.4089 292.544 34.9581 292.8 41.2198M264.548 45.7849C261.848 43.9326 256.834 43.049 253.964 47.4529C250.749 52.3853 250.726 63.9481 263.369 59.9434M311.085 66.015L306.134 70.2241C305.525 70.6835 305.757 72.1331 311.562 74.2566" stroke="#E91C0D" stroke-width="3.22114" stroke-linecap="round" stroke-linejoin="round"/>
<path d="M361.11 57.3524C365.6 56.8581 375.107 56.5814 373.596 68.0813C372.312 73.3831 368.074 78.075 358.619 73.4634" stroke="#E91C0D" stroke-width="3.22114" stroke-linecap="round" stroke-linejoin="round"/>
<path d="M274.124 82.1377C273.328 85.6141 272.173 93.047 274.837 96.3276M266.595 71.6267C263.499 74.848 258.455 85.7083 264.024 97.6554M354.178 81.734C355.513 84.4606 356.483 96.2559 353.58 104.591M344.716 90.8655C345.525 93.0564 346.905 97.9126 344.039 101.856" stroke="#E91C0D" stroke-width="3.22114" stroke-linecap="round" stroke-linejoin="round"/>
<path d="M255.831 60.3971C250.419 79.5386 249.026 112.445 286.749 90.9361" stroke="#E91C0D" stroke-width="3.22114" stroke-linecap="round"/>
<path d="M368.346 74.9609C373.441 94.1889 369.584 118.219 332.221 96.0929" stroke="#E91C0D" stroke-width="3.22114" stroke-linecap="round"/>
<path d="M287.09 91.4688C292.954 102.961 310.473 120.358 333.633 98.0076" stroke="#E91C0D" stroke-width="3.17259" stroke-linecap="round"/>
<ellipse cx="297.609" cy="57.2763" rx="2.90329" ry="4.83881" transform="rotate(12.067 297.609 57.2763)" fill="#E91C0D"/>
<ellipse cx="324.561" cy="60.9561" rx="2.90329" ry="4.83881" transform="rotate(9.75597 324.561 60.9561)" fill="#E91C0D"/>
<path d="M258 94.5C226.826 100.513 165.422 113.047 156.899 117.38C156.247 117.712 156.024 118.397 156.072 119.127C156.557 126.471 157.649 139.577 158.94 145.801C159.213 147.118 160.407 147.956 161.75 147.89C193.684 146.325 252.935 143.108 269.81 141.067C271.721 140.836 273.5 142.333 273.5 144.258V145.364M312 133C275.899 144.821 204.831 168.889 197.576 174.391C197.116 174.74 197.058 175.299 197.172 175.865C198.775 183.79 202.416 198.458 205.5 200C207.963 201.231 253.263 192.417 289 184.877M332 175C329.886 175.961 311.306 180.171 289 184.877M289 184.877L291.998 192.465C292.566 193.902 291.961 195.527 290.598 196.257C273.795 205.254 242.263 226.165 233.5 247.5C229.159 263.096 222.119 298.577 227.373 319.736C227.706 321.077 228.966 321.943 230.346 321.868C254.528 320.55 306.607 318.904 339.5 322C343.806 322 385.653 325.663 398.891 318.969C399.924 318.447 400.362 317.278 400.167 316.137C397.071 298.07 395.976 268.558 409.5 256C420.667 244.667 434.5 211.6 400.5 170C389 151.833 363.7 113.4 354.5 105" stroke="#E91C0D" stroke-width="3" stroke-linecap="round"/>
<path d="M228.999 322C228.166 327.333 227.699 338.2 232.499 345M232.499 345C235.833 349.333 246.099 355.9 260.499 347.5M232.499 345C230.689 346.163 227.897 349.011 228.042 352.657C228.115 354.498 227.433 356.551 225.711 357.205C213.824 361.719 195.83 370.195 197.277 376.367C197.378 376.797 197.489 377.229 197.534 377.668C198.149 383.673 207.191 392.438 239.764 384.061C239.917 384.021 240.073 383.993 240.23 383.978C252.142 382.797 274.198 377.697 271.283 366.408C271.129 365.812 270.726 365.316 270.236 364.944C266.038 361.765 259.224 354.647 260.499 347.5M260.499 347.5C261.833 341.667 264.099 328.6 262.499 321" stroke="#E91C0D" stroke-width="3" stroke-linecap="round"/>
<path d="M366.501 324.002C367.954 329.201 375.889 347.828 383.077 352.026M383.077 352.026C387.907 354.588 399.972 356.307 409.593 342.692M383.077 352.026C381.912 353.835 380.552 357.585 382.195 360.843C383.024 362.487 383.256 364.638 381.96 365.947C373.014 374.983 360.154 390.157 364.03 395.173C364.3 395.523 364.579 395.87 364.802 396.251C367.852 401.461 379.714 405.688 405.882 384.56C406.005 384.46 406.135 384.37 406.272 384.291C416.622 378.278 434.579 364.492 427.246 355.428C426.859 354.949 426.286 354.665 425.686 354.53C420.548 353.377 411.396 349.725 409.593 342.692M409.593 342.692C408.388 336.831 405.033 324.001 400.426 317.748" stroke="#E91C0D" stroke-width="3" stroke-linecap="round"/>
<path d="M229 332C236.167 333.5 253 335.1 263 329.5" stroke="#E91C0D" stroke-width="3" stroke-linecap="round"/>
<path d="M374.501 341.65C381.645 340.044 397.627 334.52 404.405 325.278" stroke="#E91C0D" stroke-width="3" stroke-linecap="round"/>
<ellipse cx="294" cy="123.5" rx="4" ry="2.5" fill="#E91C0D"/>
<path d="M154.48 126.113C154.001 128.017 153.057 129.544 151.994 130.491C150.924 131.445 149.873 131.711 149.036 131.5C148.198 131.289 147.399 130.557 146.908 129.21C146.421 127.873 146.313 126.081 146.792 124.176C147.272 122.272 148.216 120.745 149.279 119.798C150.348 118.845 151.4 118.578 152.237 118.789C153.074 119 153.874 119.733 154.365 121.079C154.852 122.416 154.96 124.208 154.48 126.113Z" stroke="#E91C0D" stroke-width="3"/>
<path d="M189.945 178.566C191.075 179.014 192.879 179.244 194.402 179.35C195.646 179.437 196.764 180.2 197.206 181.366L202.518 195.397C202.824 196.207 202.775 197.116 202.322 197.854C199.17 203.004 194.581 206.081 192.556 207.018C184.82 210.594 181.222 208.715 179.818 206.215C179.057 204.861 177.369 203.425 176.923 201.938C176.505 200.541 175.588 199.289 174.798 198.064C174.066 196.93 173.789 195.385 173.768 194.097C173.755 193.262 173.522 192.433 173.075 191.728C169.438 185.992 176.093 183.283 177.325 182.877C178.63 182.446 181.676 181.153 183.417 179.429C185.158 177.704 187.769 177.704 189.945 178.566Z" stroke="#E91C0D" stroke-width="3"/>
<path d="M136 146.175C141.1 149.86 148.06 155.923 158.5 144.5" stroke="#E91C0D" stroke-width="3"/>
<path d="M142.556 146.937C140.535 147.223 138.72 147.058 137.439 146.629C136.062 146.169 135.746 145.588 135.713 145.353C135.68 145.118 135.822 144.472 137.017 143.648C138.129 142.881 139.827 142.219 141.849 141.933C143.87 141.647 145.685 141.812 146.966 142.241C148.343 142.702 148.659 143.282 148.692 143.517C148.725 143.753 148.583 144.398 147.388 145.222C146.276 145.99 144.578 146.651 142.556 146.937Z" stroke="#E91C0D" stroke-width="3"/>
<path d="M141.67 140.722C139.648 141.008 137.833 140.843 136.552 140.415C135.176 139.954 134.86 139.373 134.826 139.138C134.793 138.903 134.936 138.257 136.13 137.433C137.242 136.666 138.94 136.004 140.962 135.719C142.984 135.433 144.799 135.597 146.08 136.026C147.456 136.487 147.772 137.067 147.805 137.302C147.838 137.538 147.696 138.183 146.501 139.007C145.39 139.775 143.691 140.436 141.67 140.722Z" stroke="#E91C0D" stroke-width="3"/>
<path d="M140.779 135.398C138.757 135.684 136.942 135.519 135.661 135.09C134.285 134.629 133.969 134.049 133.936 133.814C133.902 133.579 134.045 132.933 135.24 132.109C136.351 131.341 138.05 130.68 140.071 130.394C142.093 130.108 143.908 130.273 145.189 130.702C146.565 131.163 146.881 131.743 146.915 131.978C146.948 132.213 146.805 132.859 145.611 133.683C144.499 134.451 142.801 135.112 140.779 135.398Z" stroke="#E91C0D" stroke-width="3"/>
<path d="M139.892 130.07C137.871 130.355 136.056 130.191 134.774 129.762C133.398 129.301 133.082 128.721 133.049 128.486C133.016 128.25 133.158 127.605 134.353 126.781C135.465 126.013 137.163 125.352 139.185 125.066C141.206 124.78 143.021 124.945 144.302 125.374C145.679 125.834 145.995 126.415 146.028 126.65C146.061 126.885 145.918 127.531 144.724 128.355C143.612 129.122 141.914 129.784 139.892 130.07Z" stroke="#E91C0D" stroke-width="3"/>
</svg>
